<?xml version="1.0" encoding="utf-8"?>
<!-- Generator: Adobe Illustrator 18.0.0, SVG Export Plug-In . SVG Version: 6.00 Build 0)  -->
<!DOCTYPE svg PUBLIC "-//W3C//DTD SVG 1.1//EN" "http://www.w3.org/Graphics/SVG/1.1/DTD/svg11.dtd">
<svg version="1.1" id="Layer_1" xmlns="http://www.w3.org/2000/svg" xmlns:xlink="http://www.w3.org/1999/xlink" x="0px" y="0px"
	 viewBox="0 0 261.3 247.6" enable-background="new 0 0 261.3 247.6" xml:space="preserve">
<g display="none">
	<path display="inline" fill="#231F20" d="M135.6-25.9v-3.8c0-19.4,12.3-32.6,31.2-40.6l179.1-77.5c4.7-1.9,10.9-3.8,17.5-3.8
		c17,0,33.5,15.6,33.5,35s-10.9,29.8-25.5,35L224.4-27.3l147.9,55.3c12.3,4.7,24.6,14.6,24.6,33.5S382.2,96,362.8,96
		c-6.1,0-13.7-2.4-17-3.8L166.7,14.7C148.3,6.7,135.6-6.5,135.6-25.9z"/>
	<path display="inline" fill="#231F20" d="M261.3,121.9v3.8c0,19.4-12.3,32.6-31.2,40.6L51,243.8c-4.7,1.9-10.9,3.8-17.5,3.8
		c-17,0-33.5-15.6-33.5-35c0-19.4,10.9-29.8,25.5-35l146.9-54.3L24.6,68C12.3,63.3,0,53.4,0,34.5C0,15.6,14.6,0,34,0
		c6.1,0,13.7,2.4,17,3.8l179.1,77.5C248.5,89.3,261.3,102.5,261.3,121.9z"/>
</g>
<g display="none">
	<path display="inline" fill="#FFFFFF" d="M135.6-25.9v-3.8c0-19.4,12.3-32.6,31.2-40.6l179.1-77.5c4.7-1.9,10.9-3.8,17.5-3.8
		c17,0,33.5,15.6,33.5,35s-10.9,29.8-25.5,35L224.4-27.3l147.9,55.3c12.3,4.7,24.6,14.6,24.6,33.5S382.2,96,362.8,96
		c-6.1,0-13.7-2.4-17-3.8L166.7,14.7C148.3,6.7,135.6-6.5,135.6-25.9z"/>
	<path display="inline" fill="#FFFFFF" d="M261.3,121.9v3.8c0,19.4-12.3,32.6-31.2,40.6L51,243.8c-4.7,1.9-10.9,3.8-17.5,3.8
		c-17,0-33.5-15.6-33.5-35c0-19.4,10.9-29.8,25.5-35l146.9-54.3L24.6,68C12.3,63.3,0,53.4,0,34.5C0,15.6,14.6,0,34,0
		c6.1,0,13.7,2.4,17,3.8l179.1,77.5C248.5,89.3,261.3,102.5,261.3,121.9z"/>
</g>
<path fill="#231F20" d="M261.3,121.9v3.8c0,19.4-12.3,32.6-31.2,40.6L51,243.8c-4.7,1.9-10.9,3.8-17.5,3.8c-17,0-33.5-15.6-33.5-35
	c0-19.4,10.9-29.8,25.5-35l146.9-54.3L24.6,68C12.3,63.3,0,53.4,0,34.5C0,15.6,14.6,0,34,0c6.1,0,13.7,2.4,17,3.8l179.1,77.5
	C248.5,89.3,261.3,102.5,261.3,121.9z"/>
</svg>
