<?xml version="1.0" encoding="utf-8"?>
<!-- Generator: Adobe Illustrator 14.0.0, SVG Export Plug-In . SVG Version: 6.00 Build 43363)  -->
<!DOCTYPE svg PUBLIC "-//W3C//DTD SVG 1.1//EN" "http://www.w3.org/Graphics/SVG/1.1/DTD/svg11.dtd">
<svg version="1.1" id="Layer_1" xmlns="http://www.w3.org/2000/svg" xmlns:xlink="http://www.w3.org/1999/xlink" x="0px" y="0px"
	 width="612px" height="792px" viewBox="0 0 612 792" enable-background="new 0 0 612 792" xml:space="preserve">
<g display="none">
	<path display="inline" fill="#231F20" d="M317.594,45.382v-8.9c0-45.438,28.809-76.354,73.074-95.091l419.477-181.516
		c11.008-4.45,25.529-8.9,40.987-8.9c39.816,0,78.462,36.538,78.462,81.975s-25.529,69.795-59.725,81.975L525.575,42.104
		l346.401,129.52c28.809,11.008,57.617,34.195,57.617,78.461c0,44.266-34.43,80.804-79.867,80.804
		c-14.287,0-32.087-5.621-39.816-8.9L390.434,140.473C347.339,121.736,317.594,90.82,317.594,45.382z"/>
	<path display="inline" fill="#231F20" d="M612,391.55v8.9c0,45.438-28.809,76.354-73.074,95.091L119.449,677.057
		c-11.008,4.449-25.529,8.899-40.987,8.899C38.645,685.956,0,649.419,0,603.981s25.529-69.796,59.725-81.975l344.06-127.178
		L57.617,265.309C28.808,254.301,0,231.114,0,186.847c0-44.266,34.195-80.804,79.633-80.804c14.287,0,32.087,5.621,39.816,8.9
		l419.477,181.515C582.021,315.196,612,346.112,612,391.55z"/>
</g>
<g display="none">
	<path display="inline" fill="#FFFFFF" d="M317.594,45.382v-8.9c0-45.438,28.809-76.354,73.074-95.091l419.477-181.516
		c11.008-4.45,25.529-8.9,40.987-8.9c39.816,0,78.462,36.538,78.462,81.975s-25.529,69.795-59.725,81.975L525.575,42.104
		l346.401,129.52c28.809,11.008,57.617,34.195,57.617,78.461c0,44.266-34.43,80.804-79.867,80.804
		c-14.287,0-32.087-5.621-39.816-8.9L390.434,140.473C347.339,121.736,317.594,90.82,317.594,45.382z"/>
	<path display="inline" fill="#FFFFFF" d="M612,391.55v8.9c0,45.438-28.809,76.354-73.074,95.091L119.449,677.057
		c-11.008,4.449-25.529,8.899-40.987,8.899C38.645,685.956,0,649.419,0,603.981s25.529-69.796,59.725-81.975l344.06-127.178
		L57.617,265.309C28.808,254.301,0,231.114,0,186.847c0-44.266,34.195-80.804,79.633-80.804c14.287,0,32.087,5.621,39.816,8.9
		l419.477,181.515C582.021,315.196,612,346.112,612,391.55z"/>
</g>
<path fill="#FFFFFF" d="M612,391.55v8.9c0,45.438-28.809,76.354-73.074,95.091L119.449,677.057
	c-11.008,4.449-25.529,8.899-40.987,8.899C38.645,685.956,0,649.419,0,603.981s25.529-69.796,59.725-81.975l344.06-127.178
	L57.617,265.309C28.808,254.301,0,231.114,0,186.847c0-44.266,34.195-80.804,79.633-80.804c14.287,0,32.087,5.621,39.816,8.9
	l419.477,181.515C582.021,315.196,612,346.112,612,391.55z"/>
</svg>
