<?xml version="1.0" encoding="utf-8"?>
<!-- Generator: Adobe Illustrator 14.0.0, SVG Export Plug-In  -->
<!DOCTYPE svg PUBLIC "-//W3C//DTD SVG 1.1//EN" "http://www.w3.org/Graphics/SVG/1.1/DTD/svg11.dtd" [
	<!ENTITY ns_flows "http://ns.adobe.com/Flows/1.0/">
]>
<svg version="1.1"
	 xmlns="http://www.w3.org/2000/svg" xmlns:xlink="http://www.w3.org/1999/xlink" xmlns:a="http://ns.adobe.com/AdobeSVGViewerExtensions/3.0/"
	 x="0px" y="0px" width="88px" height="88px" viewBox="0 0 88 88" enable-background="new 0 0 88 88" xml:space="preserve">
<defs>
</defs>
<path fill="#172F58" d="M88,44C88,19.645,68.254,0,44,0C19.744,0,0,19.745,0,44c0,24.256,19.744,44,44,44C68.254,88,88,68.357,88,44
	z M25.658,58.233c0-3.107,1.705-4.811,4.109-5.613l23.655-8.72l-23.754-8.921c-2.006-0.801-3.91-2.305-3.91-5.412
	c0-3.006,2.307-5.513,5.514-5.513c1.001,0,2.204,0.401,2.705,0.602l28.667,12.428c3.006,1.303,5.012,3.408,5.012,6.515V44.2
	c0,3.108-2.006,5.213-5.012,6.516L33.977,63.144c-0.801,0.3-1.704,0.601-2.807,0.601C28.364,63.946,25.658,61.44,25.658,58.233z"/>
</svg>
