<?xml version="1.0" encoding="utf-8"?>
<!-- Generator: Adobe Illustrator 18.0.0, SVG Export Plug-In . SVG Version: 6.00 Build 0)  -->
<!DOCTYPE svg PUBLIC "-//W3C//DTD SVG 1.1//EN" "http://www.w3.org/Graphics/SVG/1.1/DTD/svg11.dtd">
<svg version="1.1" id="Layer_1" xmlns="http://www.w3.org/2000/svg" xmlns:xlink="http://www.w3.org/1999/xlink" x="0px" y="0px"
	 width="932px" height="391px" viewBox="0 0 932 391" enable-background="new 0 0 932 391" xml:space="preserve">
<g>
	
		<text transform="matrix(1 0 0 1 66.3332 367.0003)" fill="#D42044" font-family="'Raleway-Light'" font-size="30" letter-spacing="5">123456789</text>
	<line fill="none" stroke="#FFFFFF" stroke-width="2" stroke-miterlimit="10" x1="334.7" y1="390" x2="272" y2="390"/>
	<line fill="none" stroke="#D42044" stroke-width="2" stroke-miterlimit="10" x1="577" y1="390" x2="334.7" y2="390"/>
	<polyline fill="none" stroke="#FFFFFF" stroke-width="2" stroke-miterlimit="10" points="54.3,390 1,390 1,1 931,1 931,390 
		577,390 	"/>
	<line fill="none" stroke="#D42044" stroke-width="2" stroke-miterlimit="10" x1="272" y1="390" x2="54.3" y2="390"/>
	<rect x="726" y="119" fill="none" stroke="#FFFFFF" stroke-width="2" stroke-miterlimit="10" width="173" height="35"/>
	<line fill="none" stroke="#FFFFFF" stroke-width="2" stroke-miterlimit="10" x1="688" y1="154" x2="122" y2="154"/>
	<line fill="none" stroke="#FFFFFF" stroke-width="2" stroke-miterlimit="10" x1="688" y1="206" x2="25" y2="206"/>
	<text transform="matrix(1 0 0 1 704 149)" fill="#FFFFFF" font-family="'Raleway-Medium'" font-size="22">$</text>
	<text transform="matrix(1 0 0 1 23 108)"><tspan x="0" y="0" fill="#FFFFFF" font-family="'Raleway-Light'" font-size="20">Pay</tspan><tspan x="0" y="24" fill="#FFFFFF" font-family="'Raleway-Light'" font-size="20">To The</tspan><tspan x="0" y="48" fill="#FFFFFF" font-family="'Raleway-Light'" font-size="20">Order Of</tspan></text>
	<line fill="none" stroke="#FFFFFF" stroke-width="2" stroke-miterlimit="10" x1="23" y1="318" x2="471" y2="318"/>
	<line fill="none" stroke="#FFFFFF" stroke-width="2" stroke-miterlimit="10" x1="471" y1="318" x2="899" y2="318"/>
	<rect x="38" y="349" fill="#FFFFFF" width="7" height="7"/>
	<rect x="38" y="361.5" fill="#FFFFFF" width="7" height="7"/>
	<rect x="30.3" y="349.5" fill="#FFFFFF" width="4" height="19"/>
	<g>
		<rect x="293" y="349" fill="#FFFFFF" width="7" height="7"/>
		<rect x="293" y="361.5" fill="#FFFFFF" width="7" height="7"/>
		<rect x="285.3" y="349.5" fill="#FFFFFF" width="4" height="19"/>
	</g>
	<g>
		<rect x="594.2" y="349" fill="#FFFFFF" width="7" height="7"/>
		<rect x="594.2" y="361.5" fill="#FFFFFF" width="7" height="7"/>
		<rect x="586.5" y="349.5" fill="#FFFFFF" width="4" height="19"/>
	</g>
	<g>
		<rect x="767.7" y="349" fill="#FFFFFF" width="7" height="7"/>
		<rect x="767.7" y="361.5" fill="#FFFFFF" width="7" height="7"/>
		<rect x="760" y="349.5" fill="#FFFFFF" width="4" height="19"/>
	</g>
	
		<text transform="matrix(1 0 0 1 346.6665 367.0003)" fill="#D42044" font-family="'Raleway-Light'" font-size="30" letter-spacing="6">0123456789</text>
	
		<text transform="matrix(1 0 0 1 662.1665 367.0003)" fill="#FFFFFF" font-family="'Raleway-Light'" font-size="30" letter-spacing="9">1234</text>
</g>
</svg>
