<?xml version="1.0" encoding="utf-8"?>
<!-- Generator: Adobe Illustrator 18.0.0, SVG Export Plug-In . SVG Version: 6.00 Build 0)  -->
<!DOCTYPE svg PUBLIC "-//W3C//DTD SVG 1.1//EN" "http://www.w3.org/Graphics/SVG/1.1/DTD/svg11.dtd">
<svg version="1.1" id="Layer_1" xmlns="http://www.w3.org/2000/svg" xmlns:xlink="http://www.w3.org/1999/xlink" x="0px" y="0px"
	 width="220.4px" height="200.8px" viewBox="0 0 220.4 200.8" enable-background="new 0 0 220.4 200.8" xml:space="preserve">
<g>
	
		<polygon fill="none" stroke="#BD2240" stroke-width="15" stroke-linecap="round" stroke-linejoin="round" stroke-miterlimit="10" points="
		110.2,110.3 38.6,68.1 110.2,26 181.8,68.1 	"/>
	
		<polyline fill="none" stroke="#BD2240" stroke-width="15" stroke-linecap="round" stroke-linejoin="round" stroke-miterlimit="10" points="
		40.7,67 7.5,47.4 74.9,7.5 110.2,28.2 	"/>
	
		<polyline fill="none" stroke="#BD2240" stroke-width="15" stroke-linecap="round" stroke-linejoin="round" stroke-miterlimit="10" points="
		179.7,67 212.9,47.4 145.5,7.5 110.2,28.2 	"/>
	
		<polyline fill="none" stroke="#BD2240" stroke-width="15" stroke-linecap="round" stroke-linejoin="round" stroke-miterlimit="10" points="
		40.7,69.6 7.5,89.2 74.9,129.1 110.2,108.4 	"/>
	
		<polyline fill="none" stroke="#BD2240" stroke-width="15" stroke-linecap="round" stroke-linejoin="round" stroke-miterlimit="10" points="
		179.7,69.6 212.9,89.2 145.5,129.1 110.2,108.4 	"/>
	<path fill="none" stroke="#BD2240" stroke-width="15" stroke-linecap="round" stroke-linejoin="round" stroke-miterlimit="10" d="
		M110.2,26"/>
	
		<polyline fill="none" stroke="#BD2240" stroke-width="15" stroke-linecap="round" stroke-linejoin="round" stroke-miterlimit="10" points="
		109.7,110.3 109.7,193.3 37.7,151.8 37.7,107.3 	"/>
	
		<polyline fill="none" stroke="#BD2240" stroke-width="15" stroke-linecap="round" stroke-linejoin="round" stroke-miterlimit="10" points="
		109.7,110.3 109.7,193.3 181.7,151.8 181.7,107.3 	"/>
</g>
</svg>
