<?xml version="1.0" encoding="utf-8"?>
<!-- Generator: Adobe Illustrator 18.0.0, SVG Export Plug-In . SVG Version: 6.00 Build 0)  -->
<!DOCTYPE svg PUBLIC "-//W3C//DTD SVG 1.1//EN" "http://www.w3.org/Graphics/SVG/1.1/DTD/svg11.dtd">
<svg version="1.1" xmlns="http://www.w3.org/2000/svg" xmlns:xlink="http://www.w3.org/1999/xlink" x="0px" y="0px" width="100px"
	 height="100px" viewBox="0 0 100 100" enable-background="new 0 0 100 100" xml:space="preserve">
<g id="Layer_2" display="none">
	<circle display="inline" fill="#183058" cx="50" cy="50" r="50"/>
</g>
<g id="Layer_1">
	<g>
		<path fill="#FFFFFF" d="M77.1,35.4c0-0.6-0.2-1.2-0.5-1.8l-21,15.5l21.3,16.6c0.1-0.4,0.2-0.7,0.2-1.1V35.4z"/>
		<path fill="#FFFFFF" d="M50,50.4l24.9-18.3c-0.4-0.2-0.9-0.3-1.3-0.3h-47c-0.5,0-0.9,0.1-1.3,0.3L50,50.4z"/>
		<path fill="#FFFFFF" d="M23.4,33.7c-0.3,0.5-0.5,1.1-0.5,1.8v29.2c0,0.6,0.2,1.2,0.5,1.7l21.1-17.1L23.4,33.7z"/>
		<path fill="#FFFFFF" d="M53.6,50.6L50,53.3l-3.6-2.7L25.1,67.9c0.4,0.2,0.9,0.3,1.4,0.3h47c0.7,0,1.4-0.2,2-0.6L53.6,50.6z"/>
	</g>
</g>
</svg>
