<?xml version="1.0" encoding="utf-8"?>
<!-- Generator: Adobe Illustrator 14.0.0, SVG Export Plug-In . SVG Version: 6.00 Build 43363)  -->
<!DOCTYPE svg PUBLIC "-//W3C//DTD SVG 1.1//EN" "http://www.w3.org/Graphics/SVG/1.1/DTD/svg11.dtd">
<svg version="1.1" id="Layer_1" xmlns="http://www.w3.org/2000/svg" xmlns:xlink="http://www.w3.org/1999/xlink" x="0px" y="0px"
	 width="612px" height="792px" viewBox="0 0 612 792" enable-background="new 0 0 612 792" xml:space="preserve">
<g>
	<path fill="#FFFFFF" d="M375.363,430.751l-53.229,46.334c-4.965,4.138-11.032,6.344-17.1,6.344c-6.067,0-12.411-2.206-17.375-6.344
		l-49.919-43.852L42.749,601.195h527.054L375.363,430.751z"/>
	<path fill="#FFFFFF" d="M0,560.652c0,2.482,0.276,4.965,0.828,7.447l197.197-169.617L0.276,225.832
		c0,1.931-0.276,3.585-0.276,5.516V560.652z"/>
	<path fill="#FFFFFF" d="M305.035,422.477l266.974-231.672h-0.275H40.542c-0.276,0-0.276,0-0.551,0L305.035,422.477z"/>
	<path fill="#FFFFFF" d="M611.448,567.823c0.552-2.482,0.552-4.688,0.552-7.171V231.348c0-1.931-0.275-3.585-0.552-5.516
		L415.079,396.276L611.448,567.823z"/>
</g>
</svg>
