<?xml version="1.0" encoding="utf-8"?>
<!-- Generator: Adobe Illustrator 18.0.0, SVG Export Plug-In . SVG Version: 6.00 Build 0)  -->
<!DOCTYPE svg PUBLIC "-//W3C//DTD SVG 1.1//EN" "http://www.w3.org/Graphics/SVG/1.1/DTD/svg11.dtd">
<svg version="1.1" id="Layer_1" xmlns="http://www.w3.org/2000/svg" xmlns:xlink="http://www.w3.org/1999/xlink" x="0px" y="0px"
	 viewBox="0 0 221.9 148.8" enable-background="new 0 0 221.9 148.8" xml:space="preserve">
<g>
	<path d="M136.1,87l-19.3,16.8c-1.8,1.5-4,2.3-6.2,2.3c-2.2,0-4.5-0.8-6.3-2.3L86.2,87.9l-70.7,60.9h191.1L136.1,87z"/>
	<path d="M0,134.1c0,0.9,0.1,1.8,0.3,2.7l71.5-61.5L0.1,12.7C0.1,13.4,0,14,0,14.7V134.1z"/>
	<path d="M110.6,84l96.8-84c0,0-0.1,0-0.1,0H14.7c-0.1,0-0.1,0-0.2,0L110.6,84z"/>
	<path d="M221.7,136.7c0.2-0.9,0.2-1.7,0.2-2.6V14.7c0-0.7-0.1-1.3-0.2-2l-71.2,61.8L221.7,136.7z"/>
</g>
</svg>
