<?xml version="1.0" encoding="utf-8"?>
<!-- Generator: Adobe Illustrator 18.0.0, SVG Export Plug-In . SVG Version: 6.00 Build 0)  -->
<!DOCTYPE svg PUBLIC "-//W3C//DTD SVG 1.1//EN" "http://www.w3.org/Graphics/SVG/1.1/DTD/svg11.dtd">
<svg version="1.1" xmlns="http://www.w3.org/2000/svg" xmlns:xlink="http://www.w3.org/1999/xlink" x="0px" y="0px" width="100px"
	 height="100px" viewBox="0 0 100 100" enable-background="new 0 0 100 100" xml:space="preserve">
<g id="Layer_2" display="none">
	<circle display="inline" fill="#183058" cx="50" cy="50" r="50"/>
</g>
<g id="Layer_1">
	<path fill="#FFFFFF" d="M35.9,42.6c1.7,0,3.4,0,5.1,0c0.8,0,1.6,0,2.5,0c0.6,0,0.8-0.2,0.8-0.8c0-2.6,0-5.3,0-7.9
		c0.1-4.4,2.7-8.4,6.9-10.1c1.2-0.5,2.5-0.8,3.8-0.9c1.4,0,2.9-0.2,4.3-0.2c1.4,0,2.9,0.2,4.3,0.3c0.2,0,0.5,0.3,0.5,0.5
		c0,2.7,0,5.3,0,8.1c-0.8,0-1.5,0-2.2,0c-1.6,0.1-3.3,0.1-4.9,0.3c-1.6,0.2-2.6,1.3-2.7,2.8c-0.1,2.4,0,4.8,0,7.2
		c0,0.5,0.3,0.6,0.7,0.6c2.5,0,5.1,0,7.6,0c0.3,0,0.6,0,1,0c-0.4,3.2-0.8,6.3-1.2,9.5c-2.7,0-5.4,0-8.1,0c0,8.2,0,16.4,0,24.5
		c-3.4,0-6.7,0-10,0c0-8.2,0-16.3,0-24.5c-2.8,0-5.6,0-8.3,0C35.9,48.9,35.9,45.8,35.9,42.6z"/>
</g>
</svg>
