<?xml version="1.0" encoding="utf-8"?>
<!-- Generator: Adobe Illustrator 18.0.0, SVG Export Plug-In . SVG Version: 6.00 Build 0)  -->
<!DOCTYPE svg PUBLIC "-//W3C//DTD SVG 1.1//EN" "http://www.w3.org/Graphics/SVG/1.1/DTD/svg11.dtd">
<svg version="1.1" id="Layer_1" xmlns="http://www.w3.org/2000/svg" xmlns:xlink="http://www.w3.org/1999/xlink" x="0px" y="0px"
	 width="287px" height="281.2px" viewBox="0 0 287 281.2" enable-background="new 0 0 287 281.2" xml:space="preserve">
<g>
	<path fill="none" stroke="#F47A20" stroke-width="8" stroke-linecap="round" stroke-linejoin="round" stroke-miterlimit="10" d="
		M224.6,66.7c1.8,1.5,4.2,2.7,5.4,4.6c6.1,9.2,19.2,12.8,31.6,8.4c1.8-0.6,3.4-1.8,5.5-1.5c0.6,0.1,1.8-0.1,1.9-0.5
		c3-7.6,9.9-13.9,8.5-23c-1.4-8.7-3.2-17.4-5-26c-0.8-3.9-3.5-5.7-7.5-5.5c-0.8,0-1.7,0-2.5,0c-78.7,0-157.3,0-236,0
		c-7.4,0-7.7,0.1-10,7c-2.4,7.4-4.3,15-6.6,22.5c-2.1,7,1,12.5,4.6,18c1.9,3,4.3,5.7,6.6,8.5c-1.6,3-2.1,6.1-2.1,9.5
		c0.1,48.5,0,97,0,145.5c0,10.2,0,20.3,0,30.5"/>
	<path fill="none" stroke="#FFFFFF" stroke-width="8" stroke-linecap="round" stroke-linejoin="round" stroke-miterlimit="10" d="
		M267.6,4.8c-2.2-0.2-4.3-0.5-6.5-0.5c-78.3,0-156.7,0-235,0c-1.7,0-3.3-0.2-5-0.2"/>
	<path fill="none" stroke="#F47A20" stroke-width="8" stroke-linecap="round" stroke-linejoin="round" stroke-miterlimit="10" d="
		M269.1,78.2c2.3,3,2.5,6.4,2.5,10c0,56.8,0,113.7,0,170.5"/>
	<path fill="none" stroke="#F47A20" stroke-width="8" stroke-linecap="round" stroke-linejoin="round" stroke-miterlimit="10" d="
		M117.1,66.8c2.7,2.5,5.4,5,8,7.5c10.2,9.9,26.7,9.8,37,0c2.7-2.6,4.8-6,8.5-7.5"/>
	<path fill="none" stroke="#F47A20" stroke-width="8" stroke-linecap="round" stroke-linejoin="round" stroke-miterlimit="10" d="
		M170.6,48.8c0,5.2,0.1,10.3-0.1,15.5c0,0.7-0.7,1.4,0.1,2c5.6,4,9.2,10.3,16,13.1c9.4,3.9,18.1,2.6,26.5-2.6
		c4.1-2.5,6.4-7,10.5-9.6c0.6-0.4,0.5-1.9,0.5-2.9c0-5.2,0-10.3,0-15.5"/>
	<path fill="none" stroke="#F47A20" stroke-width="8" stroke-linecap="round" stroke-linejoin="round" stroke-miterlimit="10" d="
		M63.1,48.8c0,2-0.1,4,0,6c0.2,4.2-1.8,9.6,0.8,12.2c4.6,4.8,9,10.5,15.7,12.7c11,3.6,21.1,2.4,29.5-6.5c1.1-1.2,2.1-2.7,3.5-3.4
		c4.4-2.4,4.8-6.5,4.4-10.6c-0.4-3.5-0.2-7-0.4-10.5"/>
	<path fill="none" stroke="#F47A20" stroke-width="8" stroke-linecap="round" stroke-linejoin="round" stroke-miterlimit="10" d="
		M63.1,66.8c-2.3,1.1-4.5,2.5-6,4.5c-7.3,10-17.3,11.5-28.5,9.4c-2.3-0.4-4.6-1.2-7-0.9"/>
	<path fill="none" stroke="#F47A20" stroke-width="8" stroke-linecap="round" stroke-linejoin="round" stroke-miterlimit="10" d="
		M137.1,118.8c-4.3,0.8-4.5,4.1-4.5,7.5c0,9.5,0,19,0,28.5c0,29.3,0,58.7,0,88c0,9.6,2.3,9,9,9c31.8,0,63.7,0,95.5,0c8,0,9-1,9-9
		c0-38.3,0-76.7,0-115c0-8.4-1.8-9-9-9c-33.2,0-66.3,0-99.5,0"/>
	<path fill="none" stroke="#F47A20" stroke-width="8" stroke-linecap="round" stroke-linejoin="round" stroke-miterlimit="10" d="
		M49.1,118.8c-5,0.6-5,4.2-5,8c0,17.5,0,35,0,52.5c0,21.3,0,42.7,0,64c0,7.3,1.2,8.5,8.5,8.5c15.5,0,31,0,46.5,0c6.6,0,8-1.3,8-8
		c0-39,0-78,0-117c0-7.2-2.2-8-8-8c-16.5,0-33,0-49.5,0"/>
	
		<line fill="none" stroke="#FFFFFF" stroke-width="8" stroke-linecap="round" stroke-linejoin="round" stroke-miterlimit="10" x1="4" y1="277.2" x2="283" y2="277.2"/>
	
		<line fill="none" stroke="#FFFFFF" stroke-width="8" stroke-linecap="round" stroke-linejoin="round" stroke-miterlimit="10" x1="189.3" y1="163.6" x2="159.3" y2="206.9"/>
	
		<line fill="none" stroke="#FFFFFF" stroke-width="8" stroke-linecap="round" stroke-linejoin="round" stroke-miterlimit="10" x1="219.3" y1="163.6" x2="189.3" y2="206.9"/>
	
		<circle fill="none" stroke="#FFFFFF" stroke-width="5" stroke-linecap="round" stroke-linejoin="round" stroke-miterlimit="10" cx="89.9" cy="184.9" r="5.8"/>
</g>
</svg>
