<?xml version="1.0" encoding="utf-8"?>
<!-- Generator: Adobe Illustrator 18.0.0, SVG Export Plug-In . SVG Version: 6.00 Build 0)  -->
<!DOCTYPE svg PUBLIC "-//W3C//DTD SVG 1.1//EN" "http://www.w3.org/Graphics/SVG/1.1/DTD/svg11.dtd">
<svg version="1.1" id="Layer_1" xmlns="http://www.w3.org/2000/svg" xmlns:xlink="http://www.w3.org/1999/xlink" x="0px" y="0px"
	 width="262.3px" height="315.3px" viewBox="0 0 262.3 315.3" enable-background="new 0 0 262.3 315.3" xml:space="preserve">
<g>
	<g>
		<path fill="#FFFFFF" d="M88.1,198.7c-1.4-5.6-6.1-5.4-7.7-5.4c-1,0-2.1-0.1-3.1-2.4c-0.6-1.4-1.1-2.8-1.6-4.3
			c-3.6-3.1-6-7.5-7.2-13c-0.7-3.2-1.1-6.5-1.4-9.8c-0.4,1.2-0.6,2.4-0.7,3.5l0,0.3c-1.2,9.7,0,18.4,3.5,26.5
			c2.1,4.7,5.8,7.2,10.5,7.2c4,15.1,10.1,28.1,19,40.2c-26.4,3.6-50.4,11.6-68.1,22.9C11.1,277.4,0,294,0,311.3c0,2.2,1.8,4,4,4
			s4-1.8,4-4c0-14.4,9.8-28.7,27.6-40.1c18.3-11.7,43.7-19.7,71.7-22.5c1.5-0.2,2.7-1.1,3.3-2.5c0.6-1.4,0.3-2.9-0.6-4.1
			C99.3,229.1,92.4,215.3,88.1,198.7z"/>
		<path fill="#FFFFFF" d="M230.7,264.3c-17.7-11.2-41.6-19.2-67.9-22.8c5-6.1,7.9-13,10.7-19.7l0.1-0.3c2.3-5.5,4.3-11.2,6.1-16.7
			l1.1-3.2c0.1-0.4,0.3-1.3,0.5-1.3c0,0,0,0,0,0c4.1,1,6.1-2.6,7.1-4.1c0.1-0.2,0.2-0.3,0.4-0.5c4.1-5.9,6.3-12.1,6.5-18.6
			c0-1.1,0.1-2.2,0.3-3.4c0.5-4.5,1.1-10.4-3.5-14.9c-0.4,5.9-1,11.8-2.4,17.5c-0.7,2.6-1.9,5.1-3.5,7.2c-0.8,2.6-2.1,5.1-3.9,7.6
			c-0.2,0.2-0.3,0.5-0.5,0.8c-0.1,0.2-0.2,0.4-0.3,0.5c-2.1-0.1-5.9,0.3-8,6.7l-1.1,3.1c-1.8,5.4-3.8,10.9-6,16.2l-0.1,0.3
			c-3.5,8.4-6.8,16.4-14.1,22.4c-0.8,0.7-1.3,1.6-1.4,2.7l0,0.3c-0.2,2.2,1.4,4.2,3.6,4.4c28.2,2.8,53.9,10.8,72.4,22.5
			c18,11.4,27.9,25.7,27.9,40.2c0,2.2,1.8,4,4,4s4-1.8,4-4C262.3,293.9,251.1,277.2,230.7,264.3z"/>
		<path fill="#FFFFFF" d="M181.9,133.6c0.4,5,0.6,10.2,0.5,15.4c0.6,0.1,1.2,0.1,1.7,0.2c2.6,0.4,4.7,1.6,6.1,3.3
			c0.4-6.7,0.1-13.3-0.4-19.6c-1-13.8-8-24-20.8-30.4c-14.1-7.1-30.2-9.6-50.8-8.1c-13.8,1.1-24.3,4.4-33,10.5
			c-9.7,6.8-14.4,15.8-14.1,26.9c0.1,4.9,0.2,10,0.2,14.9l0,2.1c0,0.4,0,0.8,0,1.3c0.9-0.4,2-0.7,3.1-0.9c1.6-0.2,3.2-0.4,4.8-0.6
			l0-2c0-4.9-0.1-10-0.2-15c-0.2-8.4,3.2-14.9,10.7-20.1c7.5-5.2,16.7-8.1,29-9.1c19.1-1.5,33.9,0.8,46.6,7.2
			C175.7,114.9,181.1,122.7,181.9,133.6z"/>
	</g>
	<g>
		<path fill="#F37A20" d="M79.5,143.7c14.3-0.6,28.2,1.3,42,4.8c5.8,1.5,11.5,1,17.3-0.4c11.4-2.9,23.1-4.6,34.9-4.4
			c8.1,0.1,16.2,0.8,24.4,1.2c0.6,0,1.3,0.1,1.9,0.2c4.9,1.1,5.4,2,4.6,6.9c-0.4,2.7-0.7,5.4-3.7,6.8c-0.6,0.3-1,1.5-1.3,2.3
			c-1.5,4.9-2.9,9.8-4.4,14.7c-4.7,15.4-15.7,20.3-30.7,20c-5.1-0.1-10.2-0.8-14.8-3.4c-5.5-3.1-9.3-7.6-11.3-13.5
			c-1.4-4.1-2.7-8.3-4-12.5c-0.8-2.5-2-4.4-5.1-4.4c-3.1,0-4.3,1.9-5.1,4.4c-1.3,4.1-2.6,8.2-3.9,12.2c-3.4,10.1-11.9,16.3-22.6,17
			c-6.6,0.4-12.9,0.1-19.1-2.3c-7.4-2.8-11.9-8.3-14.4-15.5c-1.9-5.5-3.4-11.1-5.2-16.7c-0.3-1-0.9-2.2-1.7-2.7
			c-4.3-2.3-2.7-6.8-3.8-10.2c-0.1-0.4,1.2-1.7,2-1.9c3-0.8,6-1.5,9.1-1.8C69.5,144,74.5,143.9,79.5,143.7z M171.9,148
			c-5.8,0.5-11.3,0.8-16.7,1.6c-3.2,0.4-6.4,1.4-9.5,2.5c-5.4,1.8-7.5,4.8-6.8,10.3c0.7,5.3,1.6,10.7,3.4,15.7
			c2.3,6.6,6.8,11.5,14,12.9c4.3,0.8,8.8,1.2,13.2,1c9.3-0.3,17.6-6.7,19.9-15.7c1.5-5.9,2.1-12,2.5-18.1c0.3-4.8-3-8.3-7.8-9
			C179.9,148.7,175.8,148.4,171.9,148z M89.1,147.7c-5.8,0.6-10.2,0.9-14.5,1.5c-4.8,0.7-7.8,3.6-7.7,8.4c0.1,5.3,0.6,10.8,1.7,16
			c2.1,9.9,8.2,16.1,18.2,18c3.5,0.7,7.3,0.6,10.9,0.3c9.1-0.8,15.7-5.3,18.8-14c1.5-4.2,2.5-8.8,3-13.3c1-8.9-0.9-11.7-9.7-13.7
			C102.6,149.4,95.1,148.7,89.1,147.7z"/>
	</g>
	
		<line fill="none" stroke="#FFFFFF" stroke-width="8" stroke-linecap="round" stroke-linejoin="round" stroke-miterlimit="10" x1="34.7" y1="101.9" x2="34.7" y2="204.7"/>
	
		<line fill="none" stroke="#FFFFFF" stroke-width="8" stroke-linecap="round" stroke-linejoin="round" stroke-miterlimit="10" x1="34.7" y1="47.3" x2="34.7" y2="65.3"/>
	<path fill="none" stroke="#F37A20" stroke-width="8" stroke-linecap="round" stroke-linejoin="round" stroke-miterlimit="10" d="
		M197.7,117.1c0-19.2-29.9-35.2-67.3-35.2s-67.8,15.5-67.8,34.7l0.1,0.5L4.2,85.2L128.2,4l124,81.4L197.7,117.1L197.7,117.1z"/>
	<path fill="none" stroke="#F37A20" stroke-width="8" stroke-linecap="round" stroke-linejoin="round" stroke-miterlimit="10" d="
		M62.2,158.5c0,0,0.8,36.2,27.5,36.2c30.5,0,34.2-36.2,34.2-36.2"/>
	<path fill="none" stroke="#F37A20" stroke-width="8" stroke-linecap="round" stroke-linejoin="round" stroke-miterlimit="10" d="
		M197.4,158.5c0,0-0.8,36.2-27.5,36.2c-30.5,0-34.2-36.2-34.2-36.2"/>
	<path fill="none" stroke="#F37A20" stroke-width="8" stroke-linecap="round" stroke-linejoin="round" stroke-miterlimit="10" d="
		M62.2,150c0,0,26.3-10.7,67,3.3c0,0,30.8-13.9,68.2-3.6"/>
</g>
</svg>
