<?xml version="1.0" encoding="utf-8"?>
<!-- Generator: Adobe Illustrator 18.0.0, SVG Export Plug-In . SVG Version: 6.00 Build 0)  -->
<!DOCTYPE svg PUBLIC "-//W3C//DTD SVG 1.1//EN" "http://www.w3.org/Graphics/SVG/1.1/DTD/svg11.dtd">
<svg version="1.1" id="Layer_1" xmlns="http://www.w3.org/2000/svg" xmlns:xlink="http://www.w3.org/1999/xlink" x="0px" y="0px"
	 width="286.2px" height="180px" viewBox="0 0 286.2 180" enable-background="new 0 0 286.2 180" xml:space="preserve">
<g>
	<g>
		<path fill="none" stroke="#BD2240" stroke-width="15" stroke-linecap="round" stroke-linejoin="round" stroke-miterlimit="10" d="
			M195.6,124.5"/>
		<path fill="none" stroke="#BD2240" stroke-width="15" stroke-linecap="round" stroke-linejoin="round" stroke-miterlimit="10" d="
			M157.6,119.2"/>
	</g>
	<path fill="none" stroke="#BD2240" stroke-width="15" stroke-linecap="round" stroke-linejoin="round" stroke-miterlimit="10" d="
		M127.9,124.5"/>
	<path fill="none" stroke="#BD2240" stroke-width="15" stroke-linecap="round" stroke-linejoin="round" stroke-miterlimit="10" d="
		M7.5,172.5c0-25.8,33.9-47.3,79.3-52.7"/>
	<path fill="none" stroke="#BD2240" stroke-width="15" stroke-linecap="round" stroke-linejoin="round" stroke-miterlimit="10" d="
		M89.9,119.2"/>
	<path fill="none" stroke="#BD2240" stroke-width="15" stroke-linecap="round" stroke-linejoin="round" stroke-miterlimit="10" d="
		M86.8,119.8c-13-10.5-21.6-29-21.6-50.1c0-13.5,2.1-26.5,6.9-37.1c6.9-15,19.3-25.2,39.3-25.2c24,0,35.8,10.4,41.4,25.7
		c3.9,10.5,4.8,23.2,4.8,36.5c0,20.4-8.1,38.4-20.4,49.1l0,0c42.5,6.5,73.7,27.6,73.7,52.4"/>
	<path fill="none" stroke="#BD2240" stroke-width="15" stroke-linecap="round" stroke-linejoin="round" stroke-miterlimit="10" d="
		M148,20.1c7.2-7.8,17.4-12.6,31.2-12.6c24,0,35.8,10.4,41.4,25.7c3.9,10.5,4.8,23.2,4.8,36.5c0,20.4-8.1,38.4-20.4,49.1l0,0
		c42.5,6.5,73.7,27.6,73.7,52.4"/>
</g>
</svg>
