<?xml version="1.0" encoding="utf-8"?>
<!-- Generator: Adobe Illustrator 18.0.0, SVG Export Plug-In . SVG Version: 6.00 Build 0)  -->
<!DOCTYPE svg PUBLIC "-//W3C//DTD SVG 1.1//EN" "http://www.w3.org/Graphics/SVG/1.1/DTD/svg11.dtd">
<svg version="1.1" id="Layer_1" xmlns="http://www.w3.org/2000/svg" xmlns:xlink="http://www.w3.org/1999/xlink" x="0px" y="0px"
	 width="290px" height="80px" viewBox="0 0 290 80" enable-background="new 0 0 290 80" xml:space="preserve">
<g>
	<g>
		<path fill="#FFFFFF" d="M26.5,25.5v-0.7c0-3.8,2.4-6.3,6.1-7.9L67.5,1.7c0.9-0.3,2-0.7,3.4-0.7c3.4,0,6.5,3.1,6.5,6.8
			s-2.1,5.8-5,6.8L43.8,25.2L72.6,36c2.4,0.9,4.8,2.9,4.8,6.5s-2.9,6.7-6.6,6.7c-1.2,0-2.6-0.5-3.4-0.7L32.6,33.4
			C28.9,31.9,26.5,29.3,26.5,25.5z"/>
		<path fill="#FFFFFF" d="M51,54.4v0.7c0,3.8-2.4,6.3-6.1,7.9L10,78.2C9.1,78.7,7.9,79,6.5,79C3.1,79,0,75.9,0,72.2
			c0-3.8,2.1-5.8,5-6.8l28.6-10.6L4.8,44C2.5,43.1,0,41.1,0,37.5c0-3.8,2.9-6.8,6.6-6.8c1.2,0,2.6,0.5,3.4,0.7l34.9,15.1
			C48.5,48,51,50.7,51,54.4z"/>
	</g>
	<g>
		<path fill="#FFFFFF" d="M103.6,61.9c-1.6-0.6-2.5-2-2.2-4c0.3-1.3,1.3-2.2,2.6-2.4c0.8-0.1,1.3,0,1.8,0.2c2.3,1,4.8,1.7,7.8,1.7
			c5.5,0,8.1-2.6,8.1-7.7v-1.4c-2.3,2.9-5,4.6-9.3,4.6c-6.6,0-12.6-4.8-12.6-13.2v0.1c0-8.5,6.1-13.2,12.6-13.2c4.4,0,7,1.8,9.2,4.3
			v-0.3c0-2.4,2.2-4.4,4.9-3.9c2,0.5,3.2,2.2,3.2,4.1v18c0,5.1-1.2,8.8-3.6,11.2c-2.6,2.6-6.7,3.8-12.2,3.8
			C110.2,63.9,106.9,63.2,103.6,61.9z M121.8,39.8L121.8,39.8c0-4-3.1-6.6-6.9-6.6c-3.8,0-6.9,2.7-6.9,6.5v0.1c0,3,2,5.7,4.9,6.3
			C117.7,47.2,121.8,44.3,121.8,39.8z"/>
		<path fill="#FFFFFF" d="M135.8,30.6c0-2.4,2.2-4.4,4.8-4c1.9,0.3,3.3,2.1,3.3,4.2v20.6c0,1.9-1.3,3.8-3.3,4.2
			c-2.5,0.5-4.8-1.5-4.8-4C135.8,51.7,135.8,30.6,135.8,30.6z"/>
		<path fill="#FFFFFF" d="M162.7,55.9h-0.4c-2.1,0-3.7-1.4-4.6-3.5l-8.6-20c-0.2-0.5-0.4-1.2-0.4-1.9c0-1.9,1.7-3.8,3.9-3.8
			s3.4,1.2,3.9,2.9l6,16.4l6.2-16.6c0.5-1.4,1.6-2.7,3.8-2.7s3.9,1.6,3.9,3.8c0,0.7-0.3,1.5-0.4,1.9l-8.7,20
			C166.4,54.5,164.9,55.9,162.7,55.9z"/>
		<path fill="#FFFFFF" d="M214.8,26.8h0.4c2.1,0,3.7,1.4,4.6,3.5l8.7,20.1c0.2,0.5,0.4,1.2,0.4,1.9c0,1.9-1.7,3.8-3.9,3.8
			c-2.1,0-3.4-1.2-3.9-2.9L215,36.7l-6.2,16.6c-0.5,1.4-1.6,2.7-3.8,2.7c-2.1,0-3.9-1.6-3.9-3.8c0-0.7,0.3-1.5,0.4-1.9l8.7-20.1
			C211.1,28.1,212.6,26.8,214.8,26.8z"/>
		<path fill="#FFFFFF" d="M185.9,48.2v3.4c0,1.9,1.3,3.8,3.3,4.2c0.3,0.1,0.6,0.1,0.8,0.1c0.3,0,0.6,0,0.8-0.1
			c1.9-0.3,3.3-2.1,3.3-4.2v-3.4v-1V33.8h3c1.7,0,3.3-1.1,3.6-2.9c0.4-2.1-1.3-4.1-3.4-4.1h-3.1v-3.3c0-1.9-1.3-3.8-3.3-4.2
			c-0.3-0.1-0.6-0.1-0.8-0.1c-0.3,0-0.6,0-0.8,0.1c-1.9,0.3-3.3,2.1-3.3,4.2v3.4h-3.1c-2.1,0-3.8,1.8-3.4,4.1
			c0.3,1.6,1.8,2.9,3.6,2.9h3v13.4v1L185.9,48.2L185.9,48.2z"/>
		<path fill="#FFFFFF" d="M233.5,24.1c0-2.4,2.2-4.4,4.8-4c1.9,0.3,3.3,2.1,3.3,4.2v13.6l10-9.5c1.1-1.1,2.1-1.8,3.6-1.8
			c2.1,0,3.6,1.7,3.6,3.6c0,1.4-0.7,2.4-1.8,3.5l-6.3,5.5l7.5,10.2c0.7,0.9,1,1.7,1,2.5c0,2.1-1.7,3.7-3.8,3.7
			c-1.6,0-2.5-0.5-3.5-1.8l-7-9.7l-3.3,3v4.4c0,1.9-1.3,3.8-3.3,4.2c-2.5,0.5-4.8-1.5-4.8-4L233.5,24.1L233.5,24.1z"/>
		<path fill="#FFFFFF" d="M280.6,55.4c-8.3,1.8-15.8-2.6-17.6-11.1v-0.1c-1.7-8,2.5-15.7,10.5-17.4c9.3-2,15,4.7,16.3,10.4
			c0.5,2.2-0.8,4.2-2.9,4.6l-15.6,3.5c1.5,3.4,4.5,4.7,7.9,4c2.1-0.5,3.9-1.5,5.2-3.1c0.4-0.4,0.8-0.7,1.3-0.9
			c1.7-0.6,3.8,0.5,4.2,2.2c0.2,1-0.1,1.9-0.5,2.5C287.5,52.5,284.6,54.5,280.6,55.4z M282,37.8c-1.2-3.4-3.9-5.3-7.1-4.6
			c-3.3,0.7-4.9,3.5-4.7,7.2L282,37.8z"/>
	</g>
</g>
</svg>
