<?xml version="1.0" encoding="utf-8"?>
<!-- Generator: Adobe Illustrator 14.0.0, SVG Export Plug-In . SVG Version: 6.00 Build 43363)  -->
<!DOCTYPE svg PUBLIC "-//W3C//DTD SVG 1.1//EN" "http://www.w3.org/Graphics/SVG/1.1/DTD/svg11.dtd">
<svg version="1.1" xmlns="http://www.w3.org/2000/svg" xmlns:xlink="http://www.w3.org/1999/xlink" x="0px" y="0px" width="88px"
	 height="88px" viewBox="0 0 88 88" enable-background="new 0 0 88 88" xml:space="preserve">
<g id="Layer_2">
	<rect x="18.5" y="17.5" fill="#222222" stroke="#000000" width="54" height="52"/>
</g>
<g id="Layer_1">
	<path fill="#FD7A23" d="M88,44C88,19.645,68.254,0,44,0C19.744,0,0,19.745,0,44c0,24.256,19.744,44,44,44
		C68.254,88,88,68.357,88,44z M25.658,58.232c0-3.106,1.705-4.812,4.109-5.612l23.655-8.72l-23.754-8.921
		c-2.006-0.801-3.91-2.305-3.91-5.412c0-3.006,2.307-5.513,5.514-5.513c1.001,0,2.204,0.401,2.705,0.602l28.667,12.428
		c3.006,1.303,5.012,3.408,5.012,6.515V44.2c0,3.108-2.006,5.213-5.012,6.516L33.977,63.145c-0.801,0.299-1.704,0.602-2.807,0.602
		C28.364,63.945,25.658,61.439,25.658,58.232z"/>
</g>
</svg>
