<?xml version="1.0" encoding="utf-8"?>
<!-- Generator: Adobe Illustrator 18.0.0, SVG Export Plug-In . SVG Version: 6.00 Build 0)  -->
<!DOCTYPE svg PUBLIC "-//W3C//DTD SVG 1.1//EN" "http://www.w3.org/Graphics/SVG/1.1/DTD/svg11.dtd">
<svg version="1.1" id="Layer_1" xmlns="http://www.w3.org/2000/svg" xmlns:xlink="http://www.w3.org/1999/xlink" x="0px" y="0px"
	 width="100px" height="100px" viewBox="0 0 100 100" enable-background="new 0 0 100 100" xml:space="preserve">
<g>
	<path fill="#172F58" d="M50.2,27l5.9,10.9c1.7,3,4.6,5.2,8,5.8l12.4,2.4l-8.7,9.4c-2.3,2.5-3.4,5.9-3,9.3l1.6,12.8l-11.5-5.4
		c-1.6-0.7-3.2-1.1-4.9-1.1c-1.7,0-3.4,0.4-5,1.1l-10.9,5.2l1.6-12.8c0.4-3.4-0.7-6.8-3.1-9.4L24,46.1l12.1-2.3
		c3.4-0.6,6.4-2.8,8-5.8L50.2,27 M50.2,2.8L34,32.5L1,38.6l23.2,24.6L20,97l30-14.3L80.6,97l-4.3-33.6L99,38.6l-32.7-6.3L50.2,2.8
		L50.2,2.8z"/>
</g>
</svg>
