<?xml version="1.0" encoding="utf-8"?>
<!-- Generator: Adobe Illustrator 18.0.0, SVG Export Plug-In . SVG Version: 6.00 Build 0)  -->
<!DOCTYPE svg PUBLIC "-//W3C//DTD SVG 1.1//EN" "http://www.w3.org/Graphics/SVG/1.1/DTD/svg11.dtd">
<svg version="1.1" id="Layer_1" xmlns="http://www.w3.org/2000/svg" xmlns:xlink="http://www.w3.org/1999/xlink" x="0px" y="0px"
	 width="88px" height="88px" viewBox="-26.5 -26.5 88 88" enable-background="new -26.5 -26.5 88 88" xml:space="preserve">
<path fill="#FFFFFF" d="M17.4-26.5c-24.3,0-43.9,19.7-43.9,43.9s19.7,43.9,43.9,43.9s43.9-19.7,43.9-43.9S41.7-26.5,17.4-26.5z
	 M31.6,35.7c-3.1,0-4.8-1.7-5.6-4.1L17.3,8L8.4,31.7c-0.8,2-2.3,3.9-5.4,3.9c-3,0-5.5-2.3-5.5-5.5c0-1,0.4-2.2,0.6-2.7L10.5-1.2
	c1.3-3,3.4-5,6.5-5h0.6c3.1,0,5.2,2,6.5,5l12.4,28.6c0.3,0.8,0.6,1.7,0.6,2.8C37.3,33,34.8,35.7,31.6,35.7z"/>
</svg>
