<?xml version="1.0" encoding="utf-8"?>
<!-- Generator: Adobe Illustrator 18.0.0, SVG Export Plug-In . SVG Version: 6.00 Build 0)  -->
<!DOCTYPE svg PUBLIC "-//W3C//DTD SVG 1.1//EN" "http://www.w3.org/Graphics/SVG/1.1/DTD/svg11.dtd">
<svg version="1.1" xmlns="http://www.w3.org/2000/svg" xmlns:xlink="http://www.w3.org/1999/xlink" x="0px" y="0px" width="100px"
	 height="100px" viewBox="0 0 100 100" enable-background="new 0 0 100 100" xml:space="preserve">
<g id="Layer_2" display="none">
	<circle display="inline" fill="#183058" cx="50" cy="50" r="50"/>
</g>
<g id="Layer_1">
	<path fill="#FFFFFF" d="M32.5,45.9c0-2.6,0-5.1,0-7.6c7.3-2.6,10.6-8.2,11.5-15.6c2.3,0,4.6,0,7,0c0,0.2,0,0.4,0,0.6
		c0,4.3,0,8.6,0,12.9c0,0.7,0,0.7,0.7,0.7c4.4,0,8.8,0,13.2,0c0.2,0,0.4,0,0.7,0c0,3,0,5.9,0,9c-0.2,0-0.4,0-0.6,0
		c-4.4,0-8.8,0-13.1,0c-0.8,0-0.8,0-0.8,0.8c0,5.6,0,11.2,0,16.8c0,1,0.3,2,0.7,2.9c0.5,1,1.2,1.8,2.2,2.3c0.4,0.2,0.9,0.2,1.4,0.4
		c1.5,0.6,3.1,0.3,4.6,0.2c0.9,0,1.8-0.3,2.6-0.5c0.1,0,0.2,0,0.3,0c0.6-0.2,1.3-0.4,1.9-0.6c0.3-0.1,0.6-0.2,0.9-0.3
		c0.5-0.2,0.9-0.4,1.4-0.6c0.1-0.1,0.3,0,0.4,0c0,2.9,0,5.7,0,8.6c-0.6,0.1-1.2,0.2-1.9,0.4c-0.8,0.2-1.5,0.4-2.3,0.6c0,0,0,0-0.1,0
		c-0.9,0.1-1.7,0.2-2.6,0.3c-1.4,0.1-2.7,0.1-4.1,0.4c-1.9,0.4-3.9,0.2-5.8,0.2c-0.8,0-1.7-0.1-2.6-0.3c-0.9-0.1-1.8-0.4-2.6-0.6
		c-0.7-0.2-1.5-0.5-2.2-0.9c-1-0.6-1.9-1.3-2.5-2.3c-0.4-0.5-0.5-1.2-0.7-1.7c-0.5-1-0.3-2-0.3-3.1c0-7.3,0-14.6,0-21.9
		c0-0.8,0-0.8-0.8-0.8C36.9,45.9,34.7,45.9,32.5,45.9z"/>
</g>
</svg>
