<?xml version="1.0" encoding="utf-8"?>
<!-- Generator: Adobe Illustrator 18.0.0, SVG Export Plug-In . SVG Version: 6.00 Build 0)  -->
<!DOCTYPE svg PUBLIC "-//W3C//DTD SVG 1.1//EN" "http://www.w3.org/Graphics/SVG/1.1/DTD/svg11.dtd">
<svg version="1.1" xmlns="http://www.w3.org/2000/svg" xmlns:xlink="http://www.w3.org/1999/xlink" x="0px" y="0px" width="100px"
	 height="100px" viewBox="0 0 100 100" enable-background="new 0 0 100 100" xml:space="preserve">
<g id="Layer_2" display="none">
	<circle display="inline" fill="#183058" cx="50" cy="50" r="50"/>
</g>
<g id="Layer_1">
	<path fill="#FFFFFF" d="M80.6,34.7c-1.4,1.9-2.9,3.4-4.6,4.5c-0.8,0.6-0.8,1.4-0.9,2.1c-0.1,0.4,0,0.9-0.1,1.3
		c-0.3,1.8-0.5,3.7-0.8,5.5c-0.6,3.6-2.1,6.9-3.9,10c-2,3.3-4.5,6.1-7.6,8.4c-2,1.5-4.2,2.9-6.5,3.9c-1.7,0.7-3.4,1.3-5.1,1.9
		c-2,0.7-4,1-6.1,1.1c-1.4,0.1-2.8,0.3-4.1,0.2c-1.8-0.1-3.6-0.4-5.4-0.8c-1.7-0.4-3.4-0.8-5-1.4c-1.8-0.7-3.5-1.6-5.2-2.6
		c5.3,0.1,10.3-0.9,14.8-3.9c0.4-0.3,0.7-0.6,1.1-0.9c0,0,0-0.2,0-0.2c-4.7-0.7-8.5-2.7-10.3-7.5c0.9,0.1,1.7,0.2,2.5,0.2
		c0.8,0,1.5-0.1,2.3-0.3c-5.2-2.1-8.6-5.5-9.1-11.4c0.9,0.3,1.7,0.7,2.5,0.9c0.8,0.2,1.7,0.4,2.6,0.5c-2.1-1.9-3.8-4.1-4.5-6.8
		c-0.7-2.8-0.3-5.5,1.1-8c6.4,7,14.3,10.6,23.7,11.4c0-0.5,0-0.8,0-1.2c-0.2-2.9,0.5-5.6,2.2-8c1.1-1.6,2.6-2.7,4.4-3.5
		c1.7-0.8,3.5-1.3,5.3-1.2c2.1,0.1,4,0.8,5.7,2c0.5,0.4,1,1,1.6,1.3c0.5,0.2,1.1,0.3,1.6,0.2c1.4-0.4,2.7-0.8,4-1.3
		c0.7-0.3,1.4-0.7,2.2-1.1c-0.1,0.9-0.5,1.6-1,2.1c-1,1.1-2.1,2.2-3.2,3.3c-0.2,0.2-0.3,0.3-0.4,0.5C76.6,36.2,78.5,35.3,80.6,34.7z
		"/>
</g>
</svg>
